<?xml version="1.0" standalone="no"?>
<!DOCTYPE svg PUBLIC "-//W3C//DTD SVG 20010904//EN"
 "http://www.w3.org/TR/2001/REC-SVG-20010904/DTD/svg10.dtd">
<svg version="1.0" xmlns="http://www.w3.org/2000/svg"
 width="388.000000pt" height="388.000000pt" viewBox="0 0 388.000000 388.000000"
 preserveAspectRatio="xMidYMid meet">
<metadata>
Created by potrace 1.16, written by Peter Selinger 2001-2019
</metadata>
<g transform="translate(0.000000,388.000000) scale(0.100000,-0.100000)"
fill="#12223b" stroke="none">
<path d="M1530 2110 l0 -1140 43 0 42 0 155 182 c85 100 209 245 275 323 66
77 196 229 289 338 l169 199 22 -24 c23 -24 133 -153 600 -701 l270 -317 78 0
c42 0 77 2 77 5 0 7 -70 91 -415 495 -569 668 -547 641 -533 658 12 15 451
530 805 944 79 92 143 170 143 173 0 3 -35 5 -78 5 l-79 0 -164 -192 c-177
-209 -473 -556 -744 -873 -94 -110 -317 -371 -494 -580 -178 -209 -328 -381
-332 -383 -5 -2 -9 453 -9 1012 l0 1016 -60 0 -60 0 0 -1140z"/>
<path fill="#ac5786" d="M535 2366 c-162 -56 -271 -178 -306 -343 -32 -154 61 -353 204 -436
78 -45 141 -60 241 -55 119 5 203 42 282 124 87 89 124 179 124 300 0 168 -91
305 -259 389 -44 22 -70 28 -149 31 -67 3 -110 0 -137 -10z"/>
</g>
</svg>
